<svg width="32" height="32" viewBox="0 0 32 32" fill="none" xmlns="http://www.w3.org/2000/svg">
<path d="M22.9208 24.9999C22.9208 24.4644 23.0264 23.9341 23.2314 23.4394C23.4364 22.9446 23.7374 22.4948 24.1161 22.1161L25.288 20.9443C25.4345 20.7978 25.5505 20.6239 25.6298 20.4326C25.7091 20.2412 25.7499 20.0362 25.7499 19.829C25.7499 19.6218 25.7092 19.416 25.6298 19.2245C25.5505 19.0333 25.4345 18.8592 25.288 18.7128H25.287C25.1406 18.5663 24.9667 18.4494 24.7753 18.3701C24.5839 18.2907 24.3781 18.2499 24.1708 18.2499C23.9637 18.25 23.7587 18.2908 23.5673 18.3701C23.3759 18.4494 23.2021 18.5662 23.0556 18.7128L14.7128 27.0556L14.7119 27.0546C14.3333 27.4333 13.8843 27.7344 13.3896 27.9394C12.8948 28.1444 12.3646 28.2499 11.829 28.2499C11.2933 28.2499 10.7624 28.1445 10.2675 27.9394C9.77272 27.7343 9.32289 27.4335 8.94427 27.0546C8.56577 26.6762 8.26541 26.2269 8.06049 25.7324C7.8554 25.2375 7.74994 24.7065 7.74994 24.1708C7.74999 23.6353 7.85548 23.105 8.06049 22.6103C8.26557 22.1154 8.56634 21.6657 8.94525 21.287L21.288 8.94427C21.4345 8.79785 21.5505 8.62387 21.6298 8.43256C21.7091 8.24121 21.7499 8.03616 21.7499 7.82904C21.7499 7.62179 21.7092 7.41601 21.6298 7.22455C21.5505 7.03325 21.4345 6.85923 21.288 6.71283H21.287C21.1406 6.56626 20.9667 6.4494 20.7753 6.37006C20.5839 6.29071 20.3781 6.24994 20.1708 6.24994C19.9637 6.24999 19.7586 6.29077 19.5673 6.37006C19.3759 6.4494 19.2021 6.56624 19.0556 6.71283L10.7128 15.0556L10.7119 15.0546C10.3333 15.4333 9.88428 15.7344 9.38959 15.9394C8.89483 16.1444 8.36458 16.2499 7.82904 16.2499C7.29335 16.2499 6.7624 16.1445 6.26752 15.9394C5.77272 15.7343 5.32289 15.4335 4.94427 15.0546C4.56577 14.6761 4.26541 14.2269 4.06049 13.7324C3.85541 13.2375 3.74994 12.7065 3.74994 12.1708C3.74999 11.6353 3.85548 11.105 4.06049 10.6103C4.26557 10.1154 4.56634 9.66571 4.94525 9.28705L10.1161 4.11615C10.6043 3.62802 11.3956 3.62806 11.8837 4.11615C12.3719 4.60431 12.3719 5.39557 11.8837 5.88373L6.71283 11.0556C6.56624 11.2021 6.4494 11.3759 6.37006 11.5673C6.29077 11.7586 6.24999 11.9637 6.24994 12.1708C6.24994 12.3781 6.29071 12.5839 6.37006 12.7753C6.42953 12.9188 6.51015 13.0522 6.60834 13.1718L6.71283 13.287V13.288C6.85923 13.4345 7.03325 13.5505 7.22455 13.6298C7.416 13.7092 7.62179 13.7499 7.82904 13.7499C8.03617 13.7499 8.24121 13.7091 8.43256 13.6298C8.62387 13.5505 8.79785 13.4345 8.94427 13.288L17.287 4.94525C17.6657 4.56634 18.1154 4.26557 18.6103 4.06049C19.105 3.85548 19.6353 3.74999 20.1708 3.74994C20.7065 3.74994 21.2375 3.85541 21.7324 4.06049C22.2269 4.26541 22.6762 4.56577 23.0546 4.94427L23.1933 5.08978C23.5074 5.43623 23.7599 5.83457 23.9394 6.26752C24.1445 6.7624 24.2499 7.29335 24.2499 7.82904C24.2499 8.36458 24.1444 8.89484 23.9394 9.38959C23.7344 9.88428 23.4333 10.3333 23.0546 10.7119L10.7128 23.0556C10.5662 23.2021 10.4494 23.3759 10.3701 23.5673C10.2908 23.7586 10.25 23.9637 10.2499 24.1708C10.2499 24.3781 10.2907 24.5839 10.3701 24.7753C10.4295 24.9188 10.5102 25.0522 10.6083 25.1718L10.7128 25.287V25.288C10.8592 25.4345 11.0333 25.5505 11.2245 25.6298C11.416 25.7092 11.6218 25.7499 11.829 25.7499C12.0362 25.7499 12.2412 25.7091 12.4326 25.6298C12.6239 25.5505 12.7978 25.4345 12.9443 25.288L21.287 16.9453C21.6657 16.5663 22.1154 16.2656 22.6103 16.0605C23.105 15.8555 23.6353 15.75 24.1708 15.7499C24.7065 15.7499 25.2375 15.8554 25.7324 16.0605C26.2269 16.2654 26.6762 16.5658 27.0546 16.9443C27.4335 17.3229 27.7343 17.7727 27.9394 18.2675C28.1445 18.7624 28.2499 19.2934 28.2499 19.829C28.2499 20.3646 28.1444 20.8948 27.9394 21.3896C27.7344 21.8843 27.4333 22.3333 27.0546 22.7119L27.0556 22.7128L25.8837 23.8837C25.7371 24.0302 25.6203 24.205 25.541 24.3964C25.4617 24.5877 25.4208 24.7929 25.4208 24.9999C25.4208 25.207 25.4618 25.4122 25.541 25.6035C25.6203 25.7949 25.7371 25.9697 25.8837 26.1161C26.3718 26.6042 26.3716 27.3955 25.8837 27.8837C25.3957 28.3718 24.6044 28.3716 24.1161 27.8837C23.7375 27.5052 23.4364 27.0561 23.2314 26.5615C23.0263 26.0666 22.9208 25.5356 22.9208 24.9999Z" fill="black"/>
</svg>
